<svg xmlns="http://www.w3.org/2000/svg" xmlns:xlink="http://www.w3.org/1999/xlink" width="43" height="41" version="1.1" viewBox="0 0 43 41"><title>Group Copy 10</title><desc>Created with Sketch.</desc><g id="Page-1" fill="none" fill-rule="evenodd" stroke="none" stroke-width="1"><g id="Group-Copy-10" transform="translate(0.000000, 0.500000)"><path id="Fill-1" fill="#E0E9F2" d="M0.0031559633,6.39544554 L0.0031559633,35.969505 C0.0031559633,38.1764356 1.78528899,39.9906931 3.98400917,39.9906931 L39.0159908,39.9906931 C41.2143165,39.9906931 42.9846147,38.1764356 42.9846147,35.969505 L42.9846147,6.39544554 L0.0031559633,6.39544554"/><path id="Fill-2" fill="#9BA6B0" d="M15.1675596,0.00118811881 L27.820211,0.00118811881 L27.820211,3.17366337 L15.1675596,3.17366337 L15.1675596,0.00118811881 Z"/><path id="Fill-3" fill="#D0D9E3" d="M12.0321101,3.19821782 L12.0321101,6.39544554 L15.1922156,6.39544554 L15.1922156,0.00118811881 L12.0321101,3.19821782"/><path id="Fill-4" fill="#D0D9E3" d="M27.8077844,6.39544554 L30.9678899,6.39544554 L30.9678899,3.19821782 L27.8077844,0.00118811881 L27.8077844,6.39544554"/><path id="Fill-5" fill="#D0D9E3" d="M0.0031559633,6.33366337 L42.996844,6.33366337 L42.996844,23.1807921 L0.0031559633,23.1807921 L0.0031559633,6.33366337 Z"/><path id="Fill-6" fill="#FAC63E" d="M37.5798303,28.2912871 L21.5,28.2912871 L27.7647844,39.9906931 L39.2410505,39.9906931 C39.4304083,38.9388119 39.5349495,37.8322772 39.5349495,36.7261386 C39.5349495,33.7752475 38.8270275,30.7528713 37.5798303,28.2912871"/><path id="Fill-7" fill="#01A158" d="M6.82989908,26.130099 C4.75426147,29.0794059 3.46505046,32.8409901 3.46505046,36.7261386 C3.46505046,37.8322772 3.56959174,38.9388119 3.75894954,39.9906931 L14.2111055,39.9906931 L6.82989908,26.130099"/><path id="Fill-8" fill="#DA4337" d="M27.7647844,39.9988119 L21.5,28.5047525 L37.5798303,28.5047525 C34.6004037,22.6251485 28.5214266,18.6205941 21.5,18.6205941 C15.4099771,18.6205941 9.97994495,21.6542574 6.71470642,26.2950495 L14.0631697,39.9988119 L27.7647844,39.9988119"/><path id="Fill-9" fill="#FFF" d="M28.9952156,39.9906931 C29.4232431,38.9962376 29.6627018,37.8766337 29.6627018,36.7261386 C29.6627018,32.2071287 26.0013899,28.5306931 21.5,28.5306931 C16.9986101,28.5306931 13.3372982,32.2071287 13.3372982,36.7261386 C13.3372982,37.8766337 13.5767569,38.9962376 14.0047844,39.9906931 L28.9952156,39.9906931"/><path id="Fill-10" fill="#567FBF" d="M27.3061835,39.9906931 C27.8383578,39.0312871 28.144289,37.9025743 28.144289,36.7261386 C28.144289,33.0419802 25.1699908,30.0558416 21.5,30.0558416 C17.8302064,30.0558416 14.855711,33.0419802 14.855711,36.7261386 C14.855711,37.9025743 15.1616422,39.0312871 15.6938165,39.9906931 L27.3061835,39.9906931"/></g></g></svg>