<svg xmlns="http://www.w3.org/2000/svg" xmlns:xlink="http://www.w3.org/1999/xlink" width="41" height="45" version="1.1" viewBox="0 0 41 45"><title>Group</title><desc>Created with Sketch.</desc><defs><linearGradient id="linearGradient-1" x1="19.215%" x2="69.302%" y1="-20.691%" y2="86.141%"><stop offset="0%" stop-color="#19A3B4"/><stop offset="34.817%" stop-color="#5BC3AF"/><stop offset="92.234%" stop-color="#C9F7A6"/><stop offset="100%" stop-color="#D7FEA5"/></linearGradient><linearGradient id="linearGradient-2" x1="31.484%" x2="61.609%" y1="-35.157%" y2="93.537%"><stop offset="0%" stop-color="#19A3B4"/><stop offset="34.817%" stop-color="#5BC3AF"/><stop offset="92.234%" stop-color="#C9F7A6"/><stop offset="100%" stop-color="#D7FEA5"/></linearGradient><linearGradient id="linearGradient-3" x1="8.41%" x2="65.971%" y1="-114.322%" y2="114.156%"><stop offset="0%" stop-color="#FC227C"/><stop offset="100%" stop-color="#FEEB7B"/></linearGradient><linearGradient id="linearGradient-4" x1="50%" x2="50%" y1="0%" y2="100%"><stop offset="0%" stop-color="#1C68A8"/><stop offset="100%" stop-color="#6BFED4"/></linearGradient><linearGradient id="linearGradient-5" x1="132.245%" x2="5.959%" y1="22.162%" y2="113.347%"><stop offset="0%" stop-color="#FC472E"/><stop offset=".332%" stop-color="#FC472E"/><stop offset="100%" stop-color="#893CD8"/></linearGradient><linearGradient id="linearGradient-6" x1="99.464%" x2="23.512%" y1="16.466%" y2="126.31%"><stop offset="0%" stop-color="#FC472E"/><stop offset=".332%" stop-color="#FC472E"/><stop offset="100%" stop-color="#893CD8"/></linearGradient></defs><g id="Page-1" fill="none" fill-rule="evenodd" stroke="none" stroke-width="1"><g id="Group"><g id="mask-3" fill="#FFF" transform="translate(2.000000, 0.500000)"><path id="path-2" d="M28.6078062,15.1442491 L2.27553101,0.452837387 C1.52889247,0.038342223 0.84025726,-0.0580811233 0.28243805,0.118486303 L21.8510359,22.0015769 L28.6078062,15.1442491"/></g><g id="Fill-1" fill="url(#linearGradient-2)" transform="translate(2.000000, 0.500000)"><path id="path-2" d="M28.6078062,15.1442491 L2.27553101,0.452837387 C1.52889247,0.038342223 0.84025726,-0.0580811233 0.28243805,0.118486303 L21.8510359,22.0015769 L28.6078062,15.1442491"/></g><path id="Fill-2" fill="url(#linearGradient-3)" d="M30.6423613,29.3927155 L39.6316425,24.3774493 C41.4544278,23.3568645 41.4544278,21.6963794 39.6316425,20.6782991 L30.6090403,15.6442491 L23.8510359,22.5015769 L30.6423613,29.3927155"/><g id="mask-7" fill="#FFF" transform="translate(0.000000, 0.500000)"><path id="path-6" d="M2.28120394,0.118486303 C1.48026442,0.372693307 0.961936837,1.19542238 0.961936837,2.44016012 L0.96687329,41.6155882 C0.96687329,42.8465512 1.4691574,43.6567578 2.24664877,43.9272441 L23.8510359,22.0053337 L2.28120394,0.118486303"/></g><path id="path-6" fill="url(#linearGradient-4)" d="M0.961936837,2.94016012 L0.96687329,42.1155882 C0.96687329,43.3465512 1.4691574,44.1567578 2.24664877,44.4272441 L23.8510359,22.5053337 L2.28120394,0.618486303 C1.48026442,0.872693307 0.961936837,1.69542238 0.961936837,2.94016012 Z"/><g id="mask-10" fill="#FFF" transform="translate(2.000000, 22.500000)"><path id="path-9" d="M0.24664877,21.9272441 C0.80817031,22.1200908 1.51038077,22.0299287 2.27553101,21.6041632 L28.638659,6.8927155 L21.8510359,0.0053337 L0.24664877,21.9272441"/></g><g id="Fill-4" fill="url(#linearGradient-6)" transform="translate(2.000000, 22.500000)"><path id="path-9" d="M0.24664877,21.9272441 C0.80817031,22.1200908 1.51038077,22.0299287 2.27553101,21.6041632 L28.638659,6.8927155 L21.8510359,0.0053337 L0.24664877,21.9272441"/></g></g></g></svg>