<svg xmlns="http://www.w3.org/2000/svg" xmlns:xlink="http://www.w3.org/1999/xlink" id="Layer_1" x="0" y="0" enable-background="new 0 0 47.1 46.3" version="1.1" viewBox="0 0 47.1 46.3" xml:space="preserve"><g><rect width="14.5" height="8" x="18.6" y="8.1" fill="#D0D7DD"/><g><circle cx="11.9" cy="37.3" r="5.6" fill="#FFF" stroke="#3B5062" stroke-miterlimit="10" stroke-width="2"/><path fill="#D0D7DD" d="M9,39.1c0,1.5,0.6,2.9,1.7,3.9c0.5,0.2,1.1,0.3,1.7,0.3c3.1,0,5.6-2.5,5.6-5.6c0-1.1-0.3-2.2-0.9-3 c-0.8-0.5-1.8-0.8-2.8-0.8C11.3,33.8,9,36.2,9,39.1z"/><circle cx="11.9" cy="37.3" r="5.6" fill="none" stroke="#3B5062" stroke-miterlimit="10" stroke-width="2"/></g><g><circle cx="35.9" cy="37.3" r="5.6" fill="#FFF" stroke="#3B5062" stroke-miterlimit="10" stroke-width="2"/><path fill="#D0D7DD" d="M32.9,39.1c0,1.5,0.6,2.9,1.7,3.9c0.5,0.2,1.1,0.3,1.7,0.3c3.1,0,5.6-2.5,5.6-5.6c0-1.1-0.3-2.2-0.9-3 c-0.8-0.5-1.8-0.8-2.8-0.8C35.3,33.8,32.9,36.2,32.9,39.1z"/><circle cx="35.9" cy="37.3" r="5.6" fill="none" stroke="#3B5062" stroke-miterlimit="10" stroke-width="2"/></g><rect width="18" height="11.8" x="14.8" y="3.9" fill="none" stroke="#3B5062" stroke-miterlimit="10" stroke-width="2"/><line x1="23.8" x2="23.8" y1="15.9" y2="22.4" fill="none" stroke="#3B5062" stroke-miterlimit="10" stroke-width="2"/><polyline fill="none" stroke="#3B5062" stroke-miterlimit="10" stroke-width="2" points="11.9 31.6 11.9 22.6 35.8 22.6 35.8 31.6"/></g></svg>