<svg xmlns="http://www.w3.org/2000/svg" xmlns:xlink="http://www.w3.org/1999/xlink" id="Layer_1" x="0" y="0" enable-background="new 0 0 47.1 46.3" version="1.1" viewBox="0 0 47.1 46.3" xml:space="preserve"><g><polygon fill="none" stroke="#3B5062" stroke-miterlimit="10" stroke-width="2" points="45.6 4.3 28 4.3 28 26 34.6 26 42 32 42 26 45.6 26"/><line x1="32.5" x2="42.5" y1="11.8" y2="11.8" fill="none" stroke="#3B5062" stroke-miterlimit="10" stroke-width="2"/><line x1="32.5" x2="39.5" y1="17.8" y2="17.8" fill="none" stroke="#3B5062" stroke-miterlimit="10" stroke-width="2"/><polygon fill="none" stroke="#3B5062" stroke-miterlimit="10" stroke-width="2" points="2 4.3 19.6 4.3 19.6 26 13 26 5.6 32 5.6 26 2 26"/><line x1="6.5" x2="16.5" y1="11.8" y2="11.8" fill="none" stroke="#3B5062" stroke-miterlimit="10" stroke-width="2"/><line x1="6.5" x2="13.5" y1="17.8" y2="17.8" fill="none" stroke="#3B5062" stroke-miterlimit="10" stroke-width="2"/><polygon fill="#FFF" stroke="#3B5062" stroke-miterlimit="10" stroke-width="2" points="32.6 15.3 15 15.3 15 37 21.6 37 29 43 29 37 32.6 37"/><polygon fill="#D0D7DD" points="18 19.7 18 37 21.6 37 29 43 29 37 32.6 37 32.6 19.7"/><line x1="19.5" x2="29.5" y1="22.8" y2="22.8" fill="none" stroke="#3B5062" stroke-miterlimit="10" stroke-width="2"/><line x1="19.5" x2="26.5" y1="28.8" y2="28.8" fill="none" stroke="#3B5062" stroke-miterlimit="10" stroke-width="2"/><polygon fill="none" stroke="#3B5062" stroke-miterlimit="10" stroke-width="2" points="32.6 15.3 15 15.3 15 37 21.6 37 29 43 29 37 32.6 37"/></g></svg>